<?xml version="1.0" encoding="UTF-8"?>
<svg xmlns="http://www.w3.org/2000/svg" >
<path d="M0 0 C165 0 330 0 500 0 C500 165 500 330 500 500 C335 500 170 500 0 500 C0 335 0 170 0 0 Z " fill="#e42323" transform="translate(0,0)"/>
<path d="M0 0 C1.60365408 -0.0030258 3.20730672 -0.00691742 4.81095684 -0.01159257 C9.18837433 -0.02182557 13.56570949 -0.01970283 17.94313359 -0.01541197 C22.67527338 -0.01293627 27.40739377 -0.0219692 32.13952637 -0.02944946 C41.39765849 -0.04217366 50.65576159 -0.04399312 59.91390099 -0.0416492 C67.43927625 -0.03986385 74.96464272 -0.04162032 82.49001694 -0.04587364 C83.56234399 -0.04646883 84.63467104 -0.04706402 85.73949286 -0.04767724 C87.91809314 -0.04888903 90.09669342 -0.05010316 92.27529369 -0.05131962 C112.68667549 -0.06218571 133.09804075 -0.06003668 153.50942348 -0.05393478 C172.17725415 -0.04876263 190.84503268 -0.06003058 209.51285304 -0.07903299 C228.69411666 -0.09840807 247.8753556 -0.10666822 267.05662906 -0.10290974 C277.82034387 -0.10099769 288.58401428 -0.10348601 299.3477211 -0.11762428 C308.50759772 -0.12953458 317.66740257 -0.13094663 326.82728018 -0.11883412 C331.4989138 -0.1129439 336.17041612 -0.11185013 340.84204102 -0.12383652 C345.12158099 -0.13468929 349.40087991 -0.1315992 353.68040858 -0.11757483 C355.22530496 -0.11492632 356.77022019 -0.11729929 358.31509806 -0.1253107 C371.13313203 -0.18714891 382.42701339 1.10800741 392.02706909 10.30366516 C400.36842021 19.2452242 403.02482072 26.88545632 403.07125854 39.07929993 C403.07782974 39.83957993 403.08440094 40.59985992 403.09117126 41.38317871 C403.11078849 43.88532128 403.12254328 46.38740404 403.13253784 48.88960266 C403.13661337 49.75047926 403.1406889 50.61135586 403.14488792 51.49831963 C403.16570327 56.05851369 403.18002237 60.6186781 403.18942261 65.1789093 C403.20045451 69.85673818 403.23483009 74.53408716 403.27459431 79.21174717 C403.3009135 82.8366272 403.3091281 86.46139569 403.31270409 90.08636284 C403.31753361 91.80891586 403.32904194 93.53146514 403.34774208 95.25392342 C403.48567506 108.80507374 402.73518803 121.89807705 392.89425659 132.26069641 C392.36960815 132.81370422 391.84495972 133.36671204 391.30441284 133.93647766 C382.193167 142.57608255 371.53730915 142.84154519 359.6181488 142.76863098 C357.97155693 142.77324507 356.32496917 142.77960139 354.67838997 142.78753996 C350.17287918 142.80418683 345.66770875 142.79600809 341.16219699 142.78359509 C336.29569982 142.77452779 331.4292603 142.7885227 326.56277466 142.79951477 C317.03662778 142.81728705 307.51060708 142.81346563 297.98445529 142.80186421 C290.24068874 142.79282456 282.4969575 142.79160819 274.75318718 142.79595947 C273.6503489 142.7965724 272.54751061 142.79718534 271.41125299 142.79781684 C269.17072836 142.79909577 266.93020374 142.80039262 264.68967914 142.80170721 C243.68738353 142.81310936 222.6851578 142.80000528 201.68287366 142.77850574 C183.67053597 142.76063759 165.6583014 142.76373727 147.64596558 142.78218079 C126.71951838 142.8035982 105.79313242 142.81200814 84.86667579 142.79973173 C82.63416446 142.79845756 80.40165312 142.79720008 78.16914177 142.79595947 C77.07075948 142.79534237 75.9723772 142.79472527 74.8407106 142.79408947 C67.10872803 142.790639 59.37678436 142.79645843 51.64480782 142.80587769 C42.21845343 142.81710881 32.79223224 142.81403424 23.36589307 142.79275471 C18.55842873 142.78225897 13.75118627 142.77809728 8.94372368 142.79135132 C4.53876873 142.80331175 0.13424037 142.79665273 -4.27067614 142.77544111 C-5.86006019 142.77099045 -7.44948062 142.77320662 -9.03884106 142.78294426 C-22.06956587 142.8566265 -32.22519664 141.17884968 -41.87136841 131.90132141 C-48.87224787 123.62755477 -51.25761541 114.98357332 -51.25100708 104.38447571 C-51.25436569 103.6065567 -51.2577243 102.8286377 -51.26118469 102.02714539 C-51.2706601 99.46305226 -51.27263616 96.89902469 -51.27371216 94.33491516 C-51.27692737 92.54518609 -51.28029165 90.75545728 -51.28379822 88.96572876 C-51.28978115 85.2158192 -51.291639 81.46593267 -51.29104614 77.71601868 C-51.29094463 72.92460199 -51.3045894 68.13333385 -51.32181835 63.34195232 C-51.33296935 59.64521616 -51.33496439 55.94851555 -51.33443642 52.2517643 C-51.33561214 50.4860311 -51.34001094 48.72029685 -51.34776878 46.95458031 C-51.35763034 44.47798312 -51.35466639 42.00170365 -51.34866333 39.52510071 C-51.35428284 38.80430832 -51.35990234 38.08351593 -51.36569214 37.34088135 C-51.30151046 26.85453487 -48.08763234 18.11600474 -40.85574341 10.51069641 C-29.30669537 -0.39986768 -15.15489218 -0.0408483 0 0 Z " fill="#FCF4E3" transform="translate(74.10574340820313,168.7393035888672)"/>
<path d="M0 0 C1.51400391 0.01740234 1.51400391 0.01740234 3.05859375 0.03515625 C4.07050781 0.04417969 5.08242188 0.05320313 6.125 0.0625 C6.90746094 0.07410156 7.68992187 0.08570313 8.49609375 0.09765625 C8.75825684 1.33330322 9.02041992 2.5689502 9.29052734 3.84204102 C10.26837283 8.44770972 11.24943473 13.05268844 12.23144531 17.6574707 C12.65516835 19.64654307 13.07803121 21.63579888 13.5 23.62524414 C14.10838728 26.49284314 14.71991488 29.3597575 15.33203125 32.2265625 C15.51857269 33.10913223 15.70511414 33.99170197 15.89730835 34.90101624 C16.92479872 39.69697714 18.08685433 44.39926317 19.49609375 49.09765625 C19.77694824 48.53071045 20.05780273 47.96376465 20.34716797 47.37963867 C25.82550571 36.33517643 31.35850032 25.32836461 37.14599609 14.44213867 C39.66884244 9.69465855 42.10914244 4.91505685 44.49609375 0.09765625 C48.12609375 0.09765625 51.75609375 0.09765625 55.49609375 0.09765625 C55.49609375 26.16765625 55.49609375 52.23765625 55.49609375 79.09765625 C50.54609375 79.09765625 45.59609375 79.09765625 40.49609375 79.09765625 C40.16609375 64.57765625 39.83609375 50.05765625 39.49609375 35.09765625 C37.72234375 38.66578125 35.94859375 42.23390625 34.12109375 45.91015625 C28.73049139 56.72177443 23.16307161 67.42900611 17.49609375 78.09765625 C17.16609375 78.75765625 16.83609375 79.41765625 16.49609375 80.09765625 C14.51609375 80.09765625 12.53609375 80.09765625 10.49609375 80.09765625 C9.50890753 75.19210604 8.53072116 70.28487136 7.56030273 65.37597656 C7.22999932 63.71144024 6.89737714 62.0473621 6.56225586 60.38378906 C4.66730831 50.96853398 2.95366602 41.71742628 2.49609375 32.09765625 C1.83609375 32.09765625 1.17609375 32.09765625 0.49609375 32.09765625 C0.37492187 33.09796875 0.25375 34.09828125 0.12890625 35.12890625 C-0.4363751 39.06027064 -1.4678674 42.8052371 -2.62890625 46.59765625 C-2.84119873 47.305271 -3.05349121 48.01288574 -3.2722168 48.74194336 C-4.01038574 51.19561588 -4.75688957 53.64666332 -5.50390625 56.09765625 C-6.13294156 58.17183587 -6.76184137 60.24605657 -7.390625 62.3203125 C-9.08868098 67.91471624 -10.79459511 73.50668178 -12.50390625 79.09765625 C-17.45390625 79.09765625 -22.40390625 79.09765625 -27.50390625 79.09765625 C-26.08906039 72.21860857 -24.18836495 65.62557482 -22.01953125 58.94921875 C-21.68145447 57.89721283 -21.34337769 56.84520691 -20.99505615 55.76132202 C-19.91845533 52.41386789 -18.83636563 49.06821995 -17.75390625 45.72265625 C-16.6903022 42.42276894 -15.62783823 39.12251626 -14.56555176 35.82220459 C-13.87204187 33.66879528 -13.17763452 31.51567477 -12.4822998 29.362854 C-10.86343042 24.34660761 -9.25674121 19.32730199 -7.68554688 14.29589844 C-7.40773376 13.40712006 -7.12992065 12.51834167 -6.84368896 11.60263062 C-6.32806319 9.94825021 -5.81509918 8.29303704 -5.30523682 6.63687134 C-3.27702108 0.12780893 -3.27702108 0.12780893 0 0 Z " fill="#F29F0E" transform="translate(329.50390625,192.90234375)"/>
<path d="M0 0 C1.65234375 1.0859375 1.65234375 1.0859375 3.83984375 3.0859375 C4.49984375 2.0959375 5.15984375 1.1059375 5.83984375 0.0859375 C9.09765625 -0.20703125 9.09765625 -0.20703125 12.96484375 -0.1015625 C14.88683594 -0.06095703 14.88683594 -0.06095703 16.84765625 -0.01953125 C17.83507812 0.01527344 18.8225 0.05007812 19.83984375 0.0859375 C19.02519835 5.59992967 18.20720132 11.1134109 17.38623047 16.62646484 C17.10798748 18.49807617 16.83062616 20.36981881 16.55419922 22.24169922 C16.15439575 24.94795015 15.75131701 27.65369705 15.34765625 30.359375 C15.22673615 31.18271332 15.10581604 32.00605164 14.98123169 32.8543396 C14.11360665 38.6403273 13.02157335 44.35566378 11.83984375 50.0859375 C7.21984375 50.0859375 2.59984375 50.0859375 -2.16015625 50.0859375 C-2.16015625 49.0959375 -2.16015625 48.1059375 -2.16015625 47.0859375 C-2.70285156 47.36308594 -3.24554688 47.64023437 -3.8046875 47.92578125 C-4.87783203 48.46912109 -4.87783203 48.46912109 -5.97265625 49.0234375 C-7.03419922 49.56291016 -7.03419922 49.56291016 -8.1171875 50.11328125 C-12.80187553 52.34365853 -17.18833513 53.07278512 -22.21875 51.40234375 C-27.89289261 48.81733738 -31.48139801 45.5148905 -34.26171875 39.8359375 C-36.90278615 31.75197468 -36.12013708 23.02142873 -32.41015625 15.4609375 C-25.88887717 3.70287371 -14.16362594 -5.99328837 0 0 Z " fill="#F29F0E" transform="translate(187.16015625,221.9140625)"/>
<path d="M0 0 C4.95 0 9.9 0 15 0 C14.73445313 1.71445313 14.46890625 3.42890625 14.1953125 5.1953125 C11.70278563 21.26571058 11.70278563 21.26571058 9.39453125 37.36328125 C9 40 9 40 8.44921875 42.41796875 C7.88905558 45.63768921 7.93605486 48.73879761 8 52 C8.3904248 51.5153125 8.78084961 51.030625 9.18310547 50.53125 C21.34515887 35.86202932 21.34515887 35.86202932 29.0703125 34.9375 C33.4535646 34.82759672 37.68048132 35.28008022 42 36 C35.5938098 43.96445269 28.02185374 50.68986189 20 57 C20.63837687 60.27249217 21.82865735 62.60387807 23.6171875 65.40625 C24.14183594 66.23253906 24.66648437 67.05882812 25.20703125 67.91015625 C26.03267578 69.19212891 26.03267578 69.19212891 26.875 70.5 C27.68904297 71.78197266 27.68904297 71.78197266 28.51953125 73.08984375 C31.45643615 77.72021683 31.45643615 77.72021683 34.68017578 82.15039062 C36 84 36 84 36 86 C20.05022004 87.51902666 20.05022004 87.51902666 15.421875 84.08984375 C13.62476633 81.47108404 12.29427604 78.89805288 11 76 C10.02960736 74.32820957 9.05106327 72.66111041 8.0625 71 C6 67.28617363 6 67.28617363 6 65 C5.34 65 4.68 65 4 65 C4.04125 66.2375 4.0825 67.475 4.125 68.75 C4.14378045 74.63767264 3.06300999 80.21988318 2 86 C-2.95 86 -7.9 86 -13 86 C-11.62769297 73.19180106 -9.65310914 60.56254236 -7.48486328 47.8671875 C-6.79550508 43.79074102 -6.14139597 39.70923545 -5.5 35.625 C-5.38495117 34.8925708 -5.26990234 34.1601416 -5.15136719 33.40551758 C-3.4109159 22.27398003 -1.70733144 11.13665435 0 0 Z " fill="#F29F0E" transform="translate(265,186)"/>
<path d="M0 0 C3.38798215 2.85533547 5.13757909 6.14320601 6.515625 10.27734375 C6.515625 15.22734375 6.515625 20.17734375 6.515625 25.27734375 C-4.704375 25.27734375 -15.924375 25.27734375 -27.484375 25.27734375 C-26.54755038 34.76886857 -26.54755038 34.76886857 -22.484375 38.27734375 C-18.47635017 38.90081428 -16.77696716 38.44614692 -13.234375 36.40234375 C-10.52093474 34.3986797 -10.52093474 34.3986797 -8.484375 32.27734375 C-5.4453125 32.51953125 -5.4453125 32.51953125 -1.859375 33.15234375 C-0.67085938 33.35601562 0.51765625 33.5596875 1.7421875 33.76953125 C3.11503906 34.02089844 3.11503906 34.02089844 4.515625 34.27734375 C0.20801198 41.51413363 -5.27976294 46.73172791 -13.484375 49.27734375 C-16.27537174 49.58196581 -18.77017005 49.74390536 -21.546875 49.71484375 C-22.5687793 49.74481445 -22.5687793 49.74481445 -23.61132812 49.77539062 C-29.51879163 49.76971583 -33.00983851 47.73424697 -37.12890625 43.64453125 C-42.7313784 36.48685781 -42.20889979 29.07959332 -41.484375 20.27734375 C-39.74718927 11.69099899 -34.38006914 5.2868416 -27.71484375 -0.171875 C-20.06562962 -4.92138704 -7.62420441 -4.65739443 0 0 Z " fill="#F29F0E" transform="translate(432.484375,223.72265625)"/>
<path d="M0 0 C0.79719955 0.00222061 1.59439911 0.00444122 2.41575623 0.00672913 C3.31661453 0.00680466 4.21747284 0.00688019 5.14562988 0.00695801 C6.12478867 0.01211929 7.10394745 0.01728058 8.11277771 0.02259827 C9.11018478 0.02401321 10.10759186 0.02542816 11.13522339 0.02688599 C14.3348027 0.03250337 17.53431315 0.04505881 20.73387146 0.05775452 C22.89728191 0.06276728 25.06069345 0.06733057 27.22410583 0.07142639 C32.53988775 0.08247845 37.85561792 0.09975473 43.17137146 0.12025452 C42.84137146 4.41025452 42.51137146 8.70025452 42.17137146 13.12025452 C36.89137146 13.12025452 31.61137146 13.12025452 26.17137146 13.12025452 C25.93353943 14.9803717 25.93353943 14.9803717 25.69090271 16.87806702 C24.03563632 29.53198304 22.06248883 42.11407465 19.88548279 54.68714905 C18.82710694 60.86628704 17.88578026 66.98542546 17.40428162 73.23841858 C17.17137146 75.12025452 17.17137146 75.12025452 16.17137146 77.12025452 C11.22137146 77.12025452 6.27137146 77.12025452 1.17137146 77.12025452 C2.37546601 65.34314738 3.90169336 53.65559484 5.77586365 41.96644592 C6.1765947 39.46261894 6.56887823 36.95756233 6.96043396 34.45228577 C7.21775292 32.82850956 7.47554763 31.20480866 7.73387146 29.58119202 C7.84851746 28.84774567 7.96316345 28.11429932 8.08128357 27.35862732 C8.86160865 22.53247729 9.93128736 17.84973834 11.17137146 13.12025452 C6.22137146 13.12025452 1.27137146 13.12025452 -3.82862854 13.12025452 C-2.87580805 0.18911928 -2.87580805 0.18911928 0 0 Z " fill="#F2A00F" transform="translate(77.82862854003906,194.87974548339844)"/>
<path d="M0 0 C1.66869141 -0.02126953 1.66869141 -0.02126953 3.37109375 -0.04296875 C6.52817188 0.18502098 8.71957747 0.84308991 11.5625 2.1875 C10.59894647 11.59752278 10.59894647 11.59752278 9.5625 16.1875 C8.634375 15.445 8.634375 15.445 7.6875 14.6875 C3.26789873 12.56609139 -0.61823894 12.36884347 -5.4375 13.1875 C-9.01129253 14.92972386 -11.05417525 17.63806786 -13.3125 20.875 C-14.8552045 25.41740768 -15.24243574 29.44469233 -14.4375 34.1875 C-12.77083333 37.52083333 -12.77083333 37.52083333 -9.4375 39.1875 C-3.92892332 40.02733218 0.47792936 39.44831802 5.5625 37.1875 C5.55649089 39.12543866 5.50642249 41.06327801 5.4375 43 C5.41429687 44.07894531 5.39109375 45.15789062 5.3671875 46.26953125 C4.5625 49.1875 4.5625 49.1875 1.96484375 51.0390625 C-4.79693614 53.32145433 -12.46188177 53.6014228 -19.23828125 51.19140625 C-25.17078433 47.67178677 -28.42475526 42.71924373 -30.4375 36.1875 C-31.74581172 28.7698398 -29.93789681 21.76712288 -26.4375 15.1875 C-19.35103215 5.46070726 -12.16952602 0.07034408 0 0 Z " fill="#F2A00F" transform="translate(239.4375,220.8125)"/>
<path d="M0 0 C1.50433594 0.01353516 1.50433594 0.01353516 3.0390625 0.02734375 C3.80992187 0.03894531 4.58078125 0.05054688 5.375 0.0625 C5.06491116 1.66713449 4.75183713 3.27119231 4.4375 4.875 C4.26347656 5.76832031 4.08945313 6.66164062 3.91015625 7.58203125 C3.375 10.0625 3.375 10.0625 2.375 13.0625 C1.71113281 13.02769531 1.04726562 12.99289063 0.36328125 12.95703125 C-3.47116648 12.83947884 -6.81254694 12.81523168 -10.5 13.9375 C-16.45072065 19.88822065 -17.20759754 28.57845135 -18.1875 36.56640625 C-18.79756784 41.44150198 -19.71187496 46.23598193 -20.625 51.0625 C-25.245 51.0625 -29.865 51.0625 -34.625 51.0625 C-34.03392978 39.91446683 -32.47084694 29.17121903 -30.5625 18.1875 C-30.27738121 16.51703169 -29.99287229 14.84645918 -29.70898438 13.17578125 C-29.02132595 9.13678866 -28.32550627 5.09928327 -27.625 1.0625 C-23.005 1.0625 -18.385 1.0625 -13.625 1.0625 C-13.295 2.3825 -12.965 3.7025 -12.625 5.0625 C-11.84125 4.423125 -11.0575 3.78375 -10.25 3.125 C-6.48719045 0.16850678 -4.72603583 -0.0549539 0 0 Z " fill="#F29F0E" transform="translate(149.625,220.9375)"/>
<path d="M0 0 C2.5625 1.875 2.5625 1.875 4 5 C4.75724827 10.16523029 4.80682744 15.18858829 2.4375 19.9375 C-1.10756033 24.39155016 -4.35833656 26.57733385 -10.125 27.5 C-13.72973722 26.87308918 -15.39961285 25.52609037 -18 23 C-20.10638924 18.78722152 -19.52066423 13.574825 -19 9 C-17.3701935 5.11822021 -14.85330994 2.75849773 -11.75 0 C-7.64769998 -1.49174546 -4.16488803 -1.22770953 0 0 Z " fill="#FCF3E0" transform="translate(186,234)"/>
<path d="M0 0 C1.90625 0.38671875 1.90625 0.38671875 4.40625 2.07421875 C5.90625 4.38671875 5.90625 4.38671875 5.90625 9.38671875 C-0.03375 9.38671875 -5.97375 9.38671875 -12.09375 9.38671875 C-9.38810259 2.62260023 -7.42250674 -0.40159085 0 0 Z " fill="#FCF3E1" transform="translate(420.09375,230.61328125)"/>
</svg>
